<svg xmlns="http://www.w3.org/2000/svg" width="86mm" height="52mm" viewBox="2 2 86 52"><g stroke-linecap="round"><line x1="51" y1="15.6" x2="62.5" y2="10.2" stroke="#7C8DB0" stroke-width="0.14" stroke-opacity="0.35"/><line x1="51" y1="15.6" x2="62.5" y2="15.6" stroke="#7C8DB0" stroke-width="0.17072235433137167" stroke-opacity="0.45"/><line x1="51" y1="15.6" x2="62.5" y2="21" stroke="#7C8DB0" stroke-width="0.1532575210293635" stroke-opacity="0.39"/><line x1="51" y1="15.6" x2="62.5" y2="26.4" stroke="#7C8DB0" stroke-width="0.17943737177755795" stroke-opacity="0.48"/><line x1="51" y1="15.6" x2="62.5" y2="31.8" stroke="#7C8DB0" stroke-width="0.20113188909413113" stroke-opacity="0.55"/><line x1="51" y1="21" x2="62.5" y2="10.2" stroke="#7C8DB0" stroke-width="0.16560828928708363" stroke-opacity="0.43"/><line x1="51" y1="21" x2="62.5" y2="15.6" stroke="#7C8DB0" stroke-width="0.27847352184995544" stroke-opacity="0.80"/><line x1="51" y1="21" x2="62.5" y2="21" stroke="#1D3C77" stroke-width="0.42" stroke-opacity="1"/><line x1="51" y1="21" x2="62.5" y2="26.4" stroke="#7C8DB0" stroke-width="0.1733184355384219" stroke-opacity="0.46"/><line x1="51" y1="21" x2="62.5" y2="31.8" stroke="#7C8DB0" stroke-width="0.18825661718281483" stroke-opacity="0.51"/><line x1="51" y1="26.4" x2="62.5" y2="10.2" stroke="#7C8DB0" stroke-width="0.14379467113154534" stroke-opacity="0.36"/><line x1="51" y1="26.4" x2="62.5" y2="15.6" stroke="#7C8DB0" stroke-width="0.20556265455699763" stroke-opacity="0.56"/><line x1="51" y1="26.4" x2="62.5" y2="21" stroke="#7C8DB0" stroke-width="0.2229612982778781" stroke-opacity="0.62"/><line x1="51" y1="26.4" x2="62.5" y2="26.4" stroke="#7C8DB0" stroke-width="0.1557824839158275" stroke-opacity="0.40"/><line x1="51" y1="26.4" x2="62.5" y2="31.8" stroke="#7C8DB0" stroke-width="0.24329780842039328" stroke-opacity="0.68"/><line x1="62.5" y1="10.2" x2="74" y2="10.2" stroke="#7C8DB0" stroke-width="0.2690366545742291" stroke-opacity="0.76"/><line x1="62.5" y1="10.2" x2="74" y2="15.6" stroke="#7C8DB0" stroke-width="0.24249731523537776" stroke-opacity="0.68"/><line x1="62.5" y1="10.2" x2="74" y2="21" stroke="#7C8DB0" stroke-width="0.15661024760382136" stroke-opacity="0.40"/><line x1="62.5" y1="10.2" x2="74" y2="26.4" stroke="#7C8DB0" stroke-width="0.24805188973878106" stroke-opacity="0.70"/><line x1="62.5" y1="10.2" x2="74" y2="31.8" stroke="#7C8DB0" stroke-width="0.19392690390704959" stroke-opacity="0.52"/><line x1="62.5" y1="15.6" x2="74" y2="10.2" stroke="#7C8DB0" stroke-width="0.24361187538781454" stroke-opacity="0.68"/><line x1="62.5" y1="15.6" x2="74" y2="15.6" stroke="#7C8DB0" stroke-width="0.20127571901213742" stroke-opacity="0.55"/><line x1="62.5" y1="15.6" x2="74" y2="21" stroke="#7C8DB0" stroke-width="0.20866514292585636" stroke-opacity="0.57"/><line x1="62.5" y1="15.6" x2="74" y2="26.4" stroke="#7C8DB0" stroke-width="0.1734538979580066" stroke-opacity="0.46"/><line x1="62.5" y1="15.6" x2="74" y2="31.8" stroke="#7C8DB0" stroke-width="0.14316646429993854" stroke-opacity="0.36"/><line x1="62.5" y1="21" x2="74" y2="10.2" stroke="#7C8DB0" stroke-width="0.150346574506475" stroke-opacity="0.38"/><line x1="62.5" y1="21" x2="74" y2="15.6" stroke="#7C8DB0" stroke-width="0.173002740905813" stroke-opacity="0.46"/><line x1="62.5" y1="21" x2="74" y2="21" stroke="#7C8DB0" stroke-width="0.18635188046091572" stroke-opacity="0.50"/><line x1="62.5" y1="21" x2="74" y2="26.4" stroke="#1D3C77" stroke-width="0.42" stroke-opacity="1"/><line x1="62.5" y1="21" x2="74" y2="31.8" stroke="#7C8DB0" stroke-width="0.27470062966798653" stroke-opacity="0.78"/><line x1="62.5" y1="26.4" x2="74" y2="10.2" stroke="#7C8DB0" stroke-width="0.19878600126830864" stroke-opacity="0.54"/><line x1="62.5" y1="26.4" x2="74" y2="15.6" stroke="#7C8DB0" stroke-width="0.1909950896075316" stroke-opacity="0.51"/><line x1="62.5" y1="26.4" x2="74" y2="21" stroke="#7C8DB0" stroke-width="0.190451420193931" stroke-opacity="0.51"/><line x1="62.5" y1="26.4" x2="74" y2="26.4" stroke="#7C8DB0" stroke-width="0.2401804986541538" stroke-opacity="0.67"/><line x1="62.5" y1="26.4" x2="74" y2="31.8" stroke="#7C8DB0" stroke-width="0.2436309365509078" stroke-opacity="0.68"/><line x1="62.5" y1="31.8" x2="74" y2="10.2" stroke="#7C8DB0" stroke-width="0.2555571995691571" stroke-opacity="0.72"/><line x1="62.5" y1="31.8" x2="74" y2="15.6" stroke="#7C8DB0" stroke-width="0.2722993473402312" stroke-opacity="0.78"/><line x1="62.5" y1="31.8" x2="74" y2="21" stroke="#7C8DB0" stroke-width="0.17992280754013337" stroke-opacity="0.48"/><line x1="62.5" y1="31.8" x2="74" y2="26.4" stroke="#7C8DB0" stroke-width="0.22396636169592968" stroke-opacity="0.62"/><line x1="62.5" y1="31.8" x2="74" y2="31.8" stroke="#7C8DB0" stroke-width="0.22930572428551388" stroke-opacity="0.64"/><line x1="74" y1="10.2" x2="85.5" y2="18.3" stroke="#7C8DB0" stroke-width="0.14801054370895145" stroke-opacity="0.38"/><line x1="74" y1="10.2" x2="85.5" y2="23.7" stroke="#7C8DB0" stroke-width="0.27366469713117114" stroke-opacity="0.78"/><line x1="74" y1="15.6" x2="85.5" y2="18.3" stroke="#7C8DB0" stroke-width="0.2190153178736364" stroke-opacity="0.60"/><line x1="74" y1="15.6" x2="85.5" y2="23.7" stroke="#7C8DB0" stroke-width="0.22934242712704875" stroke-opacity="0.64"/><line x1="74" y1="21" x2="85.5" y2="18.3" stroke="#7C8DB0" stroke-width="0.19099251947791346" stroke-opacity="0.51"/><line x1="74" y1="21" x2="85.5" y2="23.7" stroke="#7C8DB0" stroke-width="0.1432452791652031" stroke-opacity="0.36"/><line x1="74" y1="26.4" x2="85.5" y2="18.3" stroke="#1D3C77" stroke-width="0.42" stroke-opacity="1"/><line x1="74" y1="26.4" x2="85.5" y2="23.7" stroke="#7C8DB0" stroke-width="0.2514467994579991" stroke-opacity="0.71"/><line x1="74" y1="31.8" x2="85.5" y2="18.3" stroke="#7C8DB0" stroke-width="0.21541362905663847" stroke-opacity="0.59"/><line x1="74" y1="31.8" x2="85.5" y2="23.7" stroke="#7C8DB0" stroke-width="0.2467544077893763" stroke-opacity="0.69"/><circle cx="51" cy="15.6" r="1.55" fill="#fff" stroke="#1D3C77" stroke-width="0.35"/><circle cx="51" cy="21" r="1.55" fill="#1D3C77" stroke="#1D3C77" stroke-width="0.35"/><circle cx="51" cy="26.4" r="1.55" fill="#fff" stroke="#1D3C77" stroke-width="0.35"/><circle cx="62.5" cy="10.2" r="1.55" fill="#fff" stroke="#7C8DB0" stroke-width="0.28"/><circle cx="62.5" cy="15.6" r="1.55" fill="#fff" stroke="#7C8DB0" stroke-width="0.28"/><circle cx="62.5" cy="21" r="1.55" fill="#1D3C77" stroke="#1D3C77" stroke-width="0.35"/><circle cx="62.5" cy="26.4" r="1.55" fill="#fff" stroke="#7C8DB0" stroke-width="0.28"/><circle cx="62.5" cy="31.8" r="1.55" fill="#fff" stroke="#7C8DB0" stroke-width="0.28"/><circle cx="74" cy="10.2" r="1.55" fill="#fff" stroke="#7C8DB0" stroke-width="0.28"/><circle cx="74" cy="15.6" r="1.55" fill="#fff" stroke="#7C8DB0" stroke-width="0.28"/><circle cx="74" cy="21" r="1.55" fill="#fff" stroke="#7C8DB0" stroke-width="0.28"/><circle cx="74" cy="26.4" r="1.55" fill="#1D3C77" stroke="#1D3C77" stroke-width="0.35"/><circle cx="74" cy="31.8" r="1.55" fill="#fff" stroke="#7C8DB0" stroke-width="0.28"/><circle cx="85.5" cy="18.3" r="1.55" fill="#1D3C77" stroke="#1D3C77" stroke-width="0.35"/><circle cx="85.5" cy="23.7" r="1.55" fill="#fff" stroke="#1D3C77" stroke-width="0.35"/><circle cx="46.5" cy="19" r="0.35" fill="#C5CFE0"/><circle cx="46.5" cy="21" r="0.35" fill="#C5CFE0"/><circle cx="46.5" cy="23" r="0.35" fill="#C5CFE0"/></g></svg>